# xmcd
#
# Track frame offsets: 
#        150
#        17820
#        34070
#        51770
#
# Disc length: 905 seconds
#
# Revision: 2
# Processed by: cddbd v1.5.2PL0 Copyright (c) Steve Scherf et al.
# Submitted via: ExactAudioCopyFreeDBPlugin 1.0
#
DISCID=2a038704
DTITLE=Various Artists / Shinkon Gattai Godannar Engage! Godanar
DYEAR=2004
DGENRE=Anime
TTITLE0=Horie MItsuko, Mizuki Ichiro / Engage!! Godannar
TTITLE1=Kushida Akira / Waga na wa Godannar
TTITLE2=Horie Mitsuko, Mizuki Ichiro / Engage!! Godannar (Karaoke)
TTITLE3=Kushida Akira / Waga na wa Godannar (Karaoke)
EXTD=YEAR: 2004
EXTT0=
EXTT1=
EXTT2=
EXTT3=
PLAYORDER=
